<svg xmlns="http://www.w3.org/2000/svg" display="none">
	<symbol id="qq" viewBox="0 0 1024 1024">
		<defs><style type="text/css"></style></defs>
		<path d="M512 0C229.003636 0 0 229.003636 0 512s229.003636 512 512 512 512-229.003636 512-512S794.996364 0 512 0z m210.385455 641.396364c-7.447273 9.309091-26.996364-1.861818-41.89091-32.581819-3.723636 13.963636-13.032727 36.305455-34.443636 64.232728 35.374545 8.378182 44.683636 42.821818 33.512727 61.44-8.378182 13.032727-26.996364 24.203636-59.578181 24.203636-58.647273 0-83.781818-15.825455-95.883637-26.996364-1.861818-2.792727-5.585455-3.723636-10.24-3.723636-4.654545 0-7.447273 0.930909-10.24 3.723636-11.170909 11.170909-37.236364 26.996364-95.883636 26.996364-32.581818 0-52.130909-11.170909-59.578182-24.203636-12.101818-18.618182-1.861818-53.061818 33.512727-61.44-20.48-27.927273-29.789091-50.269091-34.443636-64.232728-13.963636 30.72-34.443636 42.821818-41.890909 32.581819-5.585455-8.378182-8.378182-26.065455-7.447273-38.167273 3.723636-46.545455 34.443636-85.643636 53.061818-106.123636-2.792727-5.585455-8.378182-40.029091 14.894546-63.301819v-1.861818c0-92.16 65.163636-158.254545 148.014545-158.254545 81.92 0 148.014545 66.094545 148.014546 158.254545v1.861818c23.272727 23.272727 17.687273 57.716364 14.894545 63.301819 17.687273 20.48 49.338182 59.578182 53.061818 106.123636 0.930909 12.101818-0.930909 29.789091-7.447272 38.167273z" fill="#30A5DD" p-id="19447"></path>
	</symbol>
	<symbol id="qqzone" viewBox="0 0 1024 1024">
		<defs><style type="text/css"></style></defs>
		<path d="M665.327084 420.415119h-308.33546l203.050555 34.802643-218.08804 177.75238h330.893222l-195.533348-42.321898z" p-id="598" fill="#f4ea2a"></path><path d="M504.459257 70.862931c-245.211794 0-444.020746 198.808952-444.020746 444.020746s198.808952 443.99721 444.020746 443.99721 443.973674-198.785415 443.973673-443.99721c0-245.211794-198.761879-444.020746-443.973673-444.020746z m288.665468 364.497575l-112.850207 95.644337 37.499056 240.783948c-7.517207 7.519254-7.701402 7.519254-15.244193 7.519254l-195.901739-120.392997-196.3172 120.392997c-15.037485 0-16.581654 0-16.581654-7.519254l27.006074-240.783948-119.006418-105.329931-40.685631-28.876677h-11.508102v-1.244341l11.508102 1.244341h233.543034l30.097482-53.598732 75.187423-158.955269h15.059997l82.70463 158.955269 30.097482 53.598732h203.052602c7.519254 0 7.519254-4.380774 7.519254 3.136433l-45.179992 35.425838z" p-id="599" fill="#f4ea2a"></path>	
	</symbol>
	<symbol id="wechat" viewBox="0 0 1024 1024">
		<defs><style type="text/css"></style></defs>
		<path d="M512 1024C229.230021 1024 0 794.769979 0 512S229.230021 0 512 0s512 229.230021 512 512-229.230021 512-512 512z m304.000268-438.26556c0-84.342608-84.233124-153.023597-178.992838-153.023597-100.396008 0-179.233275 68.68099-179.233275 153.023597 0 84.558356 78.837266 152.99891 179.232201 152.99891 21.002734 0 42.24483-5.363656 63.232537-10.486876l57.861367 31.75366-15.832285-52.778935c42.216922-31.766541 73.732294-74.045719 73.732293-121.486759z m-237.133283-26.401811c-10.475069 0-20.975899-10.499757-20.975899-21.038155 0-10.475069 10.50083-21.000587 20.975899-21.000587 15.884881 0 26.397518 10.525518 26.397518 21.000587 0 10.538398-10.512637 21.038155-26.397518 21.038155z m116.014692 0c-10.48795 0-20.963019-10.499757-20.963019-21.038155 0-10.475069 10.475069-21.000587 20.963019-21.000587 15.858046 0 26.371757 10.525518 26.371757 21.000587 0 10.538398-10.765954 21.038155-26.37283 21.038155z m-75.265073-145.263094c6.901803 0 13.831514 0.481945 20.722583 1.191446-18.569392-86.866113-111.265006-151.260042-217.120202-151.260042-118.217258 0-215.219254 80.63839-215.219253 183.229451 0 59.183765 32.186231 107.842013 86.044981 145.555052l-21.444965 64.876948 75.303715-37.916981c26.928839 5.238071 48.614239 10.741266 75.315522 10.741266 6.663514 0 13.363522-0.240436 20.039916-0.925249-4.294574-14.34244-6.676394-29.572562-6.676394-45.107522-0.012881-94.030893 80.80047-170.384369 183.033023-170.384369zM503.767212 355.609224c16.200453 0 26.915958 10.741266 26.915958 26.972847 0 16.206893-10.728386 26.947086-26.917032 26.947086-16.213333 0-32.400906-10.740193-32.400905-26.947086 0.240436-16.244461 16.416201-26.97392 32.400905-26.97392z m-150.620311 53.894172c-16.213333 0-32.400906-10.727312-32.400905-26.947086 0-16.231581 16.200453-26.959966 32.400905-26.959966 16.226214 0 26.9546 10.741266 26.9546 26.959966-0.011807 15.991145-10.728386 26.948159-26.9546 26.94816z" fill="#07C160" p-id="10237"></path>
	</symbol>
	<symbol id="wechat-friends" viewBox="0 0 1024 1024">
		<defs><style type="text/css"></style></defs>
		<path d="M652.189 114.635s-55.86-22.614-140.234-22.614c-84.37 0-140.23 25.903-140.23 25.903l280.549 285.449-0.085-288.738z" fill="#FB5453" p-id="17860"></path><path d="M811.202 217.796c-61.928-58.727-121.8-79.649-121.8-79.649l-2.06 392.072 210.411-199.332c0 0.085-24.535-54.364-86.55-113.09z" fill="#6468F1" p-id="17861"></path><path d="M906.498 368.778L617.205 645.535h292.667s22.95-55.119 22.95-138.419c-0.087-83.215-26.324-138.338-26.324-138.338z" fill="#5283F0" p-id="17862"></path><path d="M696.62 887.697s56.813-22.842 118.033-80.602c61.223-57.757 83.1-113.488 83.1-113.488l-409.132-1.946L696.62 887.697z" fill="#00B2FE" p-id="17863"></path><path d="M371.806 911.213s55.864 22.61 140.234 22.61c84.455 0 140.234-25.902 140.234-25.902l-280.548-285.45 0.08 288.742z" fill="#66D020" p-id="17864"></path><path d="M224.484 808.047c61.934 58.732 121.806 79.65 121.806 79.65l2.057-392.072-210.411 199.33c0.084-0.08 24.619 54.365 86.548 113.092z" fill="#9AD122" p-id="17865"></path><path d="M114.134 368.778s-22.956 55.107-22.956 138.378c0 83.276 26.244 138.379 26.244 138.379l289.372-276.672h-292.66v-0.085z" fill="#FFC71A" p-id="17866"></path><path d="M339.07 138.147s-56.814 22.843-118.034 80.6c-61.222 57.758-83.1 113.494-83.1 113.494l409.132 1.942L339.07 138.147z" fill="#FF7612" p-id="17867"></path>
	</symbol>
	<symbol id="weibo" viewBox="0 0 1024 1024">
		<defs><style type="text/css"></style></defs>
		<path d="M512 1024C229.2224 1024 0 794.7776 0 512 0 229.2224 229.2224 0 512 0c282.7776 0 512 229.2224 512 512 0 282.7776-229.2224 512-512 512z m175.684267-547.072c-9.0112-2.781867-15.2576-4.625067-10.478934-16.810667 10.24-26.333867 11.332267-49.1008 0.187734-65.314133-20.8896-30.464-77.9776-28.791467-143.428267-0.8192 0 0-20.5312 9.181867-15.274667-7.458133 10.069333-33.041067 8.533333-60.7232-7.1168-76.6976-35.498667-36.266667-129.9456 1.365333-210.926933 84.002133C240.0256 455.765333 204.8 521.386667 204.8 578.082133c0 108.544 136.328533 174.506667 269.704533 174.506667 174.830933 0 291.140267-103.68 291.140267-186.026667 0-49.7152-41.045333-77.960533-77.960533-89.634133z m-212.821334 236.765867c-106.410667 10.717867-198.2976-38.365867-205.2096-109.704534-6.912-71.304533 73.7792-137.8304 180.189867-148.565333 106.4448-10.734933 198.314667 38.3488 205.2096 109.653333 6.894933 71.338667-73.7792 137.898667-180.189867 148.616534z m5.802667-198.007467c-50.875733-13.909333-108.3904 12.6976-130.491733 59.8016-22.528 48.008533-0.733867 101.2736 50.653866 118.7328 53.248 18.005333 116.036267-9.6256 137.847467-61.3888 21.538133-50.705067-5.341867-102.8608-58.026667-117.1456z m-4.778667 76.680533c-3.720533 6.7072-11.997867 9.9328-18.466133 7.168-6.382933-2.781867-8.379733-10.274133-4.7616-16.896 3.7376-6.5536 11.6736-9.728 18.0224-7.099733 6.4512 2.491733 8.789333 10.069333 5.205333 16.827733zM441.821867 638.293333c-10.359467 17.288533-32.477867 24.8832-49.152 16.896-16.469333-7.850667-21.316267-27.989333-10.973867-44.885333 10.205867-16.7936 31.624533-24.32 48.1792-17.032533 16.759467 7.509333 22.101333 27.4944 11.946667 45.021866z m363.9296-354.816c-40.277333-46.592-99.669333-64.375467-154.487467-52.224h-0.017067c-12.680533 2.850133-20.770133 15.872-18.056533 29.098667 2.696533 13.226667 15.172267 21.7088 27.8528 18.8416 39.0144-8.618667 81.220267 4.027733 109.858133 37.12 28.586667 33.1264 36.352 78.267733 24.1152 117.845333v0.017067c-3.9936 12.9024 2.747733 26.6752 15.121067 30.839467 12.305067 4.181333 25.565867-2.884267 29.5424-15.701334v-0.136533c17.237333-55.671467 6.331733-119.125333-33.928533-165.700267z m-59.528534 67.293867c-20.992-22.1184-51.968-30.532267-80.571733-24.746667-11.707733 2.3552-19.165867 13.294933-16.622933 24.405334 2.474667 11.093333 13.994667 18.210133 25.617066 15.803733v0.017067c13.994667-2.816 29.149867 1.297067 39.424 12.066133 10.274133 10.820267 13.038933 25.582933 8.618667 38.5024h0.017067c-3.669333 10.8032 2.56 22.391467 13.909333 25.9072 11.400533 3.447467 23.586133-2.440533 27.255467-13.2608 8.994133-26.453333 3.3792-56.558933-17.646934-78.677333z" fill="#E6172D" p-id="16950"></path>
	</symbol>
	<symbol id="phone" viewBox="0 0 1024 1024">
		<defs><style type="text/css"></style></defs>
		<path d="M717.76 64.128H306.112a88.96 88.96 0 0 0-88.768 88.96V870.976c0 49.088 39.808 88.896 88.768 88.896h411.648a88.96 88.96 0 0 0 88.896-88.896V153.088c0-49.088-39.936-88.96-88.896-88.96M272.192 256.896h479.552v479.744H272.192V256.896z m479.552 614.08a33.984 33.984 0 0 1-33.984 33.984H306.112a33.92 33.92 0 0 1-33.856-33.984v-79.488h479.552v79.488h-0.064zM272.192 202.048v-48.96c0-18.752 15.232-34.048 33.856-34.048h411.648c18.752 0 33.984 15.296 33.984 34.048v48.96H272.192zM512 898.112l0 0m33.024-746.176H478.976a12.416 12.416 0 0 0 0 24.896h66.048c6.848 0 12.352-5.632 12.352-12.48s-5.44-12.416-12.352-12.416" fill="#515151" p-id="4297"></path>
	</symbol>
	<symbol id="link" viewBox="0 0 1024 1024">
		<defs><style type="text/css"></style></defs>
		<path d="M656.280599 606.960747a100.49019 100.49019 0 0 1-71.348034-29.142155 40.502571 40.502571 0 1 1 57.279408-57.279408 20.098038 20.098038 0 0 0 28.137253 0l267.303905-267.303905a20.098038 20.098038 0 0 0 0-28.137253L798.976669 86.421563a20.098038 20.098038 0 0 0-28.137253 0L503.535511 352.720567a20.098038 20.098038 0 0 0 0 28.137253 40.502571 40.502571 0 1 1-57.279409 57.279408 100.49019 100.49019 0 0 1 0-141.691168L713.560008 29.142155a100.49019 100.49019 0 0 1 141.691168 0l139.681364 138.676462a100.49019 100.49019 0 0 1 0 141.691168L727.628634 576.81369a100.49019 100.49019 0 0 1-71.348035 30.147057zM239.246311 1023.995036a99.485288 99.485288 0 0 1-71.348035-29.142155L29.221814 856.176419a100.49019 100.49019 0 0 1 0-141.691168l267.303905-267.303906a100.49019 100.49019 0 0 1 141.691168 0 40.502571 40.502571 0 0 1-57.279408 57.279409 20.098038 20.098038 0 0 0-28.137253 0L86.501222 770.759757a20.098038 20.098038 0 0 0 0 28.137253l138.676462 138.676462a20.098038 20.098038 0 0 0 28.137254 0l267.303905-266.299003a20.098038 20.098038 0 0 0 0-28.137253 40.502571 40.502571 0 0 1 57.279408-57.279408 100.49019 100.49019 0 0 1 0 141.691167L310.594346 994.852881a99.485288 99.485288 0 0 1-71.348035 29.142155z" fill="#707070" p-id="6709"></path><path d="M416.109045 643.137216a40.196076 40.196076 0 0 1-28.137253-68.333329l177.867636-178.872539a40.502571 40.502571 0 0 1 57.279409 57.279409L444.246299 631.078393a40.196076 40.196076 0 0 1-28.137254 12.058823z" fill="#000000" p-id="6710"></path>
	</symbol>
	<symbol id="zhihu" viewBox="0 0 1024 1024">
		<defs><style type="text/css"></style></defs>
		<path d="M512 1024C229.2224 1024 0 794.7776 0 512 0 229.2224 229.2224 0 512 0c282.7776 0 512 229.2224 512 512 0 282.7776-229.2224 512-512 512z m-129.877333-756.48s-36.1984 2.116267-48.981334 24.490667c-12.782933 22.357333-54.306133 137.3696-54.306133 137.3696s13.841067 6.382933 37.2736-10.6496c23.432533-17.0496 30.890667-46.865067 30.890667-46.865067l42.581333-2.116267 1.0752 121.3952s-73.489067-1.0752-88.405333 0c-14.8992 1.058133-23.415467 40.448-23.415467 40.448h111.8208s-9.591467 67.106133-38.3488 116.087467c-28.740267 48.981333-83.063467 87.313067-83.063467 87.313067s39.424 15.9744 77.738667-6.382934c38.3488-22.357333 66.6112-120.712533 66.6112-120.712533l89.941333 110.062933s8.192-52.394667-1.467733-67.1744c-9.659733-14.7968-62.208-74.2912-62.208-74.2912l-22.954667 20.224 16.3328-65.109333h97.962667s0-38.3488-19.1488-40.465067c-19.182933-2.133333-78.813867 0-78.813867 0v-119.278933h88.405334s-1.0752-39.389867-18.1248-39.389867H359.765333l22.357334-64.955733z m170.001066 61.184v358.570667h36.010667l13.090133 45.0048 63.351467-45.0048h89.053867V328.704H552.123733z m42.666667 39.918933h117.879467v277.9136h-41.864534l-53.384533 40.2432-11.639467-40.2432h-10.990933V368.64z" fill="#0E87EA" p-id="7675"></path>
	</symbol>
</svg>